<mxfile host="app.diagrams.net" agent="Mozilla/5.0 (Windows NT 10.0; Win64; x64) AppleWebKit/537.36 (KHTML, like Gecko) Chrome/133.0.0.0 Safari/537.36" version="26.0.16">
  <diagram name="PÃ¡gina-1" id="rfhYGA871sq9oAG69Lff">
    <mxGraphModel grid="0" page="0" gridSize="10" guides="1" tooltips="1" connect="1" arrows="1" fold="1" pageScale="1" pageWidth="827" pageHeight="1169" math="0" shadow="0">
      <root>
        <mxCell id="0" />
        <mxCell id="1" parent="0" />
        <mxCell id="ueoVAdYtOfWDZFhrxsrk-1" value="Operaciones" style="swimlane;fontStyle=1;align=center;verticalAlign=top;childLayout=stackLayout;horizontal=1;startSize=26;horizontalStack=0;resizeParent=1;resizeParentMax=0;resizeLast=0;collapsible=1;marginBottom=0;whiteSpace=wrap;html=1;" vertex="1" parent="1">
          <mxGeometry x="-10" y="128" width="160" height="138" as="geometry" />
        </mxCell>
        <mxCell id="ueoVAdYtOfWDZFhrxsrk-2" value="&lt;div&gt;+sumar: &lt;span class=&quot;hljs-type&quot;&gt;int&lt;/span&gt;&amp;nbsp;&lt;br&gt;+restar: &lt;span class=&quot;hljs-type&quot;&gt;int&lt;/span&gt;&lt;/div&gt;&lt;div&gt;&lt;span style=&quot;background-color: transparent; color: light-dark(rgb(0, 0, 0), rgb(255, 255, 255));&quot;&gt;+multiplicar&lt;/span&gt;&lt;span style=&quot;background-color: transparent; color: light-dark(rgb(0, 0, 0), rgb(255, 255, 255));&quot;&gt;: &lt;/span&gt;&lt;span style=&quot;background-color: transparent; color: light-dark(rgb(0, 0, 0), rgb(255, 255, 255));&quot; class=&quot;hljs-type&quot;&gt;int&lt;/span&gt;&lt;span style=&quot;background-color: transparent; color: light-dark(rgb(0, 0, 0), rgb(255, 255, 255));&quot;&gt;&amp;nbsp;&lt;/span&gt;&lt;/div&gt;&lt;div&gt;+dividir: &lt;span class=&quot;hljs-type&quot;&gt;float&lt;/span&gt;&lt;/div&gt;&lt;div&gt;+residuo: &lt;span class=&quot;hljs-type&quot;&gt;int&lt;/span&gt;&amp;nbsp;&lt;/div&gt;&lt;div&gt;&lt;div&gt;&lt;br&gt;&lt;/div&gt;&lt;div&gt;&lt;br&gt;&lt;/div&gt;&lt;div&gt;&lt;br&gt;&lt;/div&gt;&lt;div&gt;&lt;br&gt;&lt;/div&gt;&lt;div&gt;&lt;br&gt;&lt;/div&gt;&lt;/div&gt;" style="text;strokeColor=none;fillColor=none;align=left;verticalAlign=top;spacingLeft=4;spacingRight=4;overflow=hidden;rotatable=0;points=[[0,0.5],[1,0.5]];portConstraint=eastwest;whiteSpace=wrap;html=1;" vertex="1" parent="ueoVAdYtOfWDZFhrxsrk-1">
          <mxGeometry y="26" width="160" height="104" as="geometry" />
        </mxCell>
        <mxCell id="ueoVAdYtOfWDZFhrxsrk-3" value="" style="line;strokeWidth=1;fillColor=none;align=left;verticalAlign=middle;spacingTop=-1;spacingLeft=3;spacingRight=3;rotatable=0;labelPosition=right;points=[];portConstraint=eastwest;strokeColor=inherit;" vertex="1" parent="ueoVAdYtOfWDZFhrxsrk-1">
          <mxGeometry y="130" width="160" height="8" as="geometry" />
        </mxCell>
        <mxCell id="ueoVAdYtOfWDZFhrxsrk-5" value="Luz" style="swimlane;fontStyle=1;align=center;verticalAlign=top;childLayout=stackLayout;horizontal=1;startSize=26;horizontalStack=0;resizeParent=1;resizeParentMax=0;resizeLast=0;collapsible=1;marginBottom=0;whiteSpace=wrap;html=1;" vertex="1" parent="1">
          <mxGeometry x="-22" y="290" width="160" height="86" as="geometry" />
        </mxCell>
        <mxCell id="ueoVAdYtOfWDZFhrxsrk-6" value="-color: &lt;span class=&quot;hljs-built_in&quot;&gt;string&lt;/span&gt;" style="text;strokeColor=none;fillColor=none;align=left;verticalAlign=top;spacingLeft=4;spacingRight=4;overflow=hidden;rotatable=0;points=[[0,0.5],[1,0.5]];portConstraint=eastwest;whiteSpace=wrap;html=1;" vertex="1" parent="ueoVAdYtOfWDZFhrxsrk-5">
          <mxGeometry y="26" width="160" height="26" as="geometry" />
        </mxCell>
        <mxCell id="ueoVAdYtOfWDZFhrxsrk-7" value="" style="line;strokeWidth=1;fillColor=none;align=left;verticalAlign=middle;spacingTop=-1;spacingLeft=3;spacingRight=3;rotatable=0;labelPosition=right;points=[];portConstraint=eastwest;strokeColor=inherit;" vertex="1" parent="ueoVAdYtOfWDZFhrxsrk-5">
          <mxGeometry y="52" width="160" height="8" as="geometry" />
        </mxCell>
        <mxCell id="ueoVAdYtOfWDZFhrxsrk-8" value="+cambiar(): void" style="text;strokeColor=none;fillColor=none;align=left;verticalAlign=top;spacingLeft=4;spacingRight=4;overflow=hidden;rotatable=0;points=[[0,0.5],[1,0.5]];portConstraint=eastwest;whiteSpace=wrap;html=1;" vertex="1" parent="ueoVAdYtOfWDZFhrxsrk-5">
          <mxGeometry y="60" width="160" height="26" as="geometry" />
        </mxCell>
        <mxCell id="ueoVAdYtOfWDZFhrxsrk-9" value="&lt;strong data-end=&quot;493&quot; data-start=&quot;474&quot;&gt;Mazo&lt;/strong&gt;" style="swimlane;fontStyle=1;align=center;verticalAlign=top;childLayout=stackLayout;horizontal=1;startSize=26;horizontalStack=0;resizeParent=1;resizeParentMax=0;resizeLast=0;collapsible=1;marginBottom=0;whiteSpace=wrap;html=1;" vertex="1" parent="1">
          <mxGeometry x="232" y="279" width="160" height="94" as="geometry" />
        </mxCell>
        <mxCell id="ueoVAdYtOfWDZFhrxsrk-10" value="-palo: &lt;span class=&quot;hljs-built_in&quot;&gt;string&lt;/span&gt;&lt;div&gt;&lt;span class=&quot;hljs-built_in&quot;&gt;-valor: &lt;span class=&quot;hljs-built_in&quot;&gt;string&lt;/span&gt;&lt;/span&gt;&lt;/div&gt;" style="text;strokeColor=none;fillColor=none;align=left;verticalAlign=top;spacingLeft=4;spacingRight=4;overflow=hidden;rotatable=0;points=[[0,0.5],[1,0.5]];portConstraint=eastwest;whiteSpace=wrap;html=1;" vertex="1" parent="ueoVAdYtOfWDZFhrxsrk-9">
          <mxGeometry y="26" width="160" height="34" as="geometry" />
        </mxCell>
        <mxCell id="ueoVAdYtOfWDZFhrxsrk-11" value="" style="line;strokeWidth=1;fillColor=none;align=left;verticalAlign=middle;spacingTop=-1;spacingLeft=3;spacingRight=3;rotatable=0;labelPosition=right;points=[];portConstraint=eastwest;strokeColor=inherit;" vertex="1" parent="ueoVAdYtOfWDZFhrxsrk-9">
          <mxGeometry y="60" width="160" height="8" as="geometry" />
        </mxCell>
        <mxCell id="ueoVAdYtOfWDZFhrxsrk-12" value="+mostrar(): void" style="text;strokeColor=none;fillColor=none;align=left;verticalAlign=top;spacingLeft=4;spacingRight=4;overflow=hidden;rotatable=0;points=[[0,0.5],[1,0.5]];portConstraint=eastwest;whiteSpace=wrap;html=1;" vertex="1" parent="ueoVAdYtOfWDZFhrxsrk-9">
          <mxGeometry y="68" width="160" height="26" as="geometry" />
        </mxCell>
        <mxCell id="ueoVAdYtOfWDZFhrxsrk-33" value="" style="endArrow=block;endFill=1;html=1;edgeStyle=orthogonalEdgeStyle;align=left;verticalAlign=top;rounded=0;fontSize=12;startSize=8;endSize=8;curved=1;exitX=0.511;exitY=-0.056;exitDx=0;exitDy=0;exitPerimeter=0;" edge="1" parent="ueoVAdYtOfWDZFhrxsrk-9">
          <mxGeometry x="-1" y="-16" relative="1" as="geometry">
            <mxPoint x="69" y="153" as="sourcePoint" />
            <mxPoint x="69" y="92" as="targetPoint" />
            <mxPoint x="-10" y="15" as="offset" />
          </mxGeometry>
        </mxCell>
        <mxCell id="ueoVAdYtOfWDZFhrxsrk-34" value="1" style="edgeLabel;resizable=0;html=1;align=left;verticalAlign=bottom;" connectable="0" vertex="1" parent="ueoVAdYtOfWDZFhrxsrk-33">
          <mxGeometry x="-1" relative="1" as="geometry" />
        </mxCell>
        <mxCell id="ueoVAdYtOfWDZFhrxsrk-13" value="&lt;span style=&quot;font-weight: 400;&quot;&gt;Poker&lt;/span&gt;" style="swimlane;fontStyle=1;align=center;verticalAlign=top;childLayout=stackLayout;horizontal=1;startSize=26;horizontalStack=0;resizeParent=1;resizeParentMax=0;resizeLast=0;collapsible=1;marginBottom=0;whiteSpace=wrap;html=1;" vertex="1" parent="1">
          <mxGeometry x="60" y="433" width="160" height="86" as="geometry" />
        </mxCell>
        <mxCell id="ueoVAdYtOfWDZFhrxsrk-14" value="&lt;span style=&quot;text-align: center;&quot;&gt;-reglas:&amp;nbsp;&lt;/span&gt;&lt;span style=&quot;text-align: center;&quot; class=&quot;hljs-built_in&quot;&gt;string&lt;/span&gt;" style="text;strokeColor=none;fillColor=none;align=left;verticalAlign=top;spacingLeft=4;spacingRight=4;overflow=hidden;rotatable=0;points=[[0,0.5],[1,0.5]];portConstraint=eastwest;whiteSpace=wrap;html=1;" vertex="1" parent="ueoVAdYtOfWDZFhrxsrk-13">
          <mxGeometry y="26" width="160" height="26" as="geometry" />
        </mxCell>
        <mxCell id="ueoVAdYtOfWDZFhrxsrk-15" value="" style="line;strokeWidth=1;fillColor=none;align=left;verticalAlign=middle;spacingTop=-1;spacingLeft=3;spacingRight=3;rotatable=0;labelPosition=right;points=[];portConstraint=eastwest;strokeColor=inherit;" vertex="1" parent="ueoVAdYtOfWDZFhrxsrk-13">
          <mxGeometry y="52" width="160" height="8" as="geometry" />
        </mxCell>
        <mxCell id="ueoVAdYtOfWDZFhrxsrk-16" value="&lt;span style=&quot;text-align: center;&quot;&gt;+jugar(): void&lt;/span&gt;" style="text;strokeColor=none;fillColor=none;align=left;verticalAlign=top;spacingLeft=4;spacingRight=4;overflow=hidden;rotatable=0;points=[[0,0.5],[1,0.5]];portConstraint=eastwest;whiteSpace=wrap;html=1;" vertex="1" parent="ueoVAdYtOfWDZFhrxsrk-13">
          <mxGeometry y="60" width="160" height="26" as="geometry" />
        </mxCell>
        <mxCell id="ueoVAdYtOfWDZFhrxsrk-17" value="&lt;span style=&quot;font-weight: 400;&quot;&gt;Blackjack&lt;/span&gt;" style="swimlane;fontStyle=1;align=center;verticalAlign=top;childLayout=stackLayout;horizontal=1;startSize=26;horizontalStack=0;resizeParent=1;resizeParentMax=0;resizeLast=0;collapsible=1;marginBottom=0;whiteSpace=wrap;html=1;" vertex="1" parent="1">
          <mxGeometry x="220" y="432" width="160" height="86" as="geometry" />
        </mxCell>
        <mxCell id="ueoVAdYtOfWDZFhrxsrk-18" value="&lt;span style=&quot;text-align: center;&quot;&gt;-reglas:&amp;nbsp;&lt;/span&gt;&lt;span style=&quot;text-align: center;&quot; class=&quot;hljs-built_in&quot;&gt;string&lt;/span&gt;" style="text;strokeColor=none;fillColor=none;align=left;verticalAlign=top;spacingLeft=4;spacingRight=4;overflow=hidden;rotatable=0;points=[[0,0.5],[1,0.5]];portConstraint=eastwest;whiteSpace=wrap;html=1;" vertex="1" parent="ueoVAdYtOfWDZFhrxsrk-17">
          <mxGeometry y="26" width="160" height="26" as="geometry" />
        </mxCell>
        <mxCell id="ueoVAdYtOfWDZFhrxsrk-19" value="" style="line;strokeWidth=1;fillColor=none;align=left;verticalAlign=middle;spacingTop=-1;spacingLeft=3;spacingRight=3;rotatable=0;labelPosition=right;points=[];portConstraint=eastwest;strokeColor=inherit;" vertex="1" parent="ueoVAdYtOfWDZFhrxsrk-17">
          <mxGeometry y="52" width="160" height="8" as="geometry" />
        </mxCell>
        <mxCell id="ueoVAdYtOfWDZFhrxsrk-20" value="&lt;span style=&quot;text-align: center;&quot;&gt;+jugar(): void&lt;/span&gt;" style="text;strokeColor=none;fillColor=none;align=left;verticalAlign=top;spacingLeft=4;spacingRight=4;overflow=hidden;rotatable=0;points=[[0,0.5],[1,0.5]];portConstraint=eastwest;whiteSpace=wrap;html=1;" vertex="1" parent="ueoVAdYtOfWDZFhrxsrk-17">
          <mxGeometry y="60" width="160" height="26" as="geometry" />
        </mxCell>
        <mxCell id="ueoVAdYtOfWDZFhrxsrk-22" value="&lt;strong data-end=&quot;493&quot; data-start=&quot;474&quot;&gt;Carta&lt;/strong&gt;" style="swimlane;fontStyle=1;align=center;verticalAlign=top;childLayout=stackLayout;horizontal=1;startSize=26;horizontalStack=0;resizeParent=1;resizeParentMax=0;resizeLast=0;collapsible=1;marginBottom=0;whiteSpace=wrap;html=1;" vertex="1" parent="1">
          <mxGeometry x="230" y="115" width="160" height="109" as="geometry" />
        </mxCell>
        <mxCell id="ueoVAdYtOfWDZFhrxsrk-25" value="&lt;div&gt;+barajear(): void&lt;/div&gt;+repartir(): Carta" style="text;strokeColor=none;fillColor=none;align=left;verticalAlign=top;spacingLeft=4;spacingRight=4;overflow=hidden;rotatable=0;points=[[0,0.5],[1,0.5]];portConstraint=eastwest;whiteSpace=wrap;html=1;" vertex="1" parent="ueoVAdYtOfWDZFhrxsrk-22">
          <mxGeometry y="26" width="160" height="41" as="geometry" />
        </mxCell>
        <mxCell id="ueoVAdYtOfWDZFhrxsrk-23" value="&lt;div&gt;&lt;span class=&quot;hljs-built_in&quot;&gt;-cartas: Lista&amp;lt;Carta&amp;gt;&lt;/span&gt;&lt;/div&gt;" style="text;strokeColor=none;fillColor=none;align=left;verticalAlign=top;spacingLeft=4;spacingRight=4;overflow=hidden;rotatable=0;points=[[0,0.5],[1,0.5]];portConstraint=eastwest;whiteSpace=wrap;html=1;" vertex="1" parent="ueoVAdYtOfWDZFhrxsrk-22">
          <mxGeometry y="67" width="160" height="34" as="geometry" />
        </mxCell>
        <mxCell id="ueoVAdYtOfWDZFhrxsrk-24" value="" style="line;strokeWidth=1;fillColor=none;align=left;verticalAlign=middle;spacingTop=-1;spacingLeft=3;spacingRight=3;rotatable=0;labelPosition=right;points=[];portConstraint=eastwest;strokeColor=inherit;" vertex="1" parent="ueoVAdYtOfWDZFhrxsrk-22">
          <mxGeometry y="101" width="160" height="8" as="geometry" />
        </mxCell>
        <mxCell id="ueoVAdYtOfWDZFhrxsrk-31" value="name" style="endArrow=block;endFill=1;html=1;edgeStyle=orthogonalEdgeStyle;align=left;verticalAlign=top;rounded=0;fontSize=12;startSize=8;endSize=8;curved=1;exitX=0.45;exitY=-0.01;exitDx=0;exitDy=0;exitPerimeter=0;" edge="1" parent="1" source="ueoVAdYtOfWDZFhrxsrk-9">
          <mxGeometry x="-1" relative="1" as="geometry">
            <mxPoint x="302.76" y="285" as="sourcePoint" />
            <mxPoint x="302.76" y="224" as="targetPoint" />
          </mxGeometry>
        </mxCell>
        <mxCell id="ueoVAdYtOfWDZFhrxsrk-32" value="1" style="edgeLabel;resizable=0;html=1;align=left;verticalAlign=bottom;" connectable="0" vertex="1" parent="ueoVAdYtOfWDZFhrxsrk-31">
          <mxGeometry x="-1" relative="1" as="geometry" />
        </mxCell>
        <mxCell id="ueoVAdYtOfWDZFhrxsrk-37" value="&lt;span style=&quot;font-weight: 400;&quot;&gt;Cliente&lt;/span&gt;" style="swimlane;fontStyle=1;align=center;verticalAlign=top;childLayout=stackLayout;horizontal=1;startSize=26;horizontalStack=0;resizeParent=1;resizeParentMax=0;resizeLast=0;collapsible=1;marginBottom=0;whiteSpace=wrap;html=1;" vertex="1" parent="1">
          <mxGeometry x="-259" y="147" width="160" height="102" as="geometry" />
        </mxCell>
        <mxCell id="ueoVAdYtOfWDZFhrxsrk-38" value="&lt;span style=&quot;text-align: center;&quot; class=&quot;hljs-operator&quot;&gt;-&lt;/span&gt;&lt;span style=&quot;text-align: center;&quot;&gt;nombre: string&lt;/span&gt;&lt;div&gt;&lt;span style=&quot;text-align: center;&quot; class=&quot;hljs-operator&quot;&gt;-&lt;/span&gt;&lt;span style=&quot;text-align: center;&quot;&gt;ID:&amp;nbsp;&lt;/span&gt;&lt;span style=&quot;text-align: center;&quot; class=&quot;hljs-type&quot;&gt;int&lt;/span&gt;&lt;span style=&quot;text-align: center;&quot;&gt;&lt;/span&gt;&lt;/div&gt;" style="text;strokeColor=none;fillColor=none;align=left;verticalAlign=top;spacingLeft=4;spacingRight=4;overflow=hidden;rotatable=0;points=[[0,0.5],[1,0.5]];portConstraint=eastwest;whiteSpace=wrap;html=1;" vertex="1" parent="ueoVAdYtOfWDZFhrxsrk-37">
          <mxGeometry y="26" width="160" height="42" as="geometry" />
        </mxCell>
        <mxCell id="ueoVAdYtOfWDZFhrxsrk-39" value="" style="line;strokeWidth=1;fillColor=none;align=left;verticalAlign=middle;spacingTop=-1;spacingLeft=3;spacingRight=3;rotatable=0;labelPosition=right;points=[];portConstraint=eastwest;strokeColor=inherit;" vertex="1" parent="ueoVAdYtOfWDZFhrxsrk-37">
          <mxGeometry y="68" width="160" height="8" as="geometry" />
        </mxCell>
        <mxCell id="ueoVAdYtOfWDZFhrxsrk-40" value="&lt;span style=&quot;text-align: center;&quot; class=&quot;hljs-operator&quot;&gt;+&lt;/span&gt;&lt;span style=&quot;text-align: center;&quot;&gt;autenticar(): boo&lt;/span&gt;" style="text;strokeColor=none;fillColor=none;align=left;verticalAlign=top;spacingLeft=4;spacingRight=4;overflow=hidden;rotatable=0;points=[[0,0.5],[1,0.5]];portConstraint=eastwest;whiteSpace=wrap;html=1;" vertex="1" parent="ueoVAdYtOfWDZFhrxsrk-37">
          <mxGeometry y="76" width="160" height="26" as="geometry" />
        </mxCell>
        <mxCell id="ueoVAdYtOfWDZFhrxsrk-41" value="dispatch" style="html=1;verticalAlign=bottom;endArrow=block;curved=0;rounded=0;fontSize=12;startSize=8;endSize=8;exitX=0.425;exitY=1;exitDx=0;exitDy=0;exitPerimeter=0;" edge="1" parent="1" source="ueoVAdYtOfWDZFhrxsrk-40" target="ueoVAdYtOfWDZFhrxsrk-42">
          <mxGeometry width="80" relative="1" as="geometry">
            <mxPoint x="-195" y="658" as="sourcePoint" />
            <mxPoint x="-191" y="381" as="targetPoint" />
          </mxGeometry>
        </mxCell>
        <mxCell id="ueoVAdYtOfWDZFhrxsrk-42" value="&lt;span style=&quot;font-weight: 400;&quot;&gt;Cuenta&lt;/span&gt;" style="swimlane;fontStyle=1;align=center;verticalAlign=top;childLayout=stackLayout;horizontal=1;startSize=26;horizontalStack=0;resizeParent=1;resizeParentMax=0;resizeLast=0;collapsible=1;marginBottom=0;whiteSpace=wrap;html=1;" vertex="1" parent="1">
          <mxGeometry x="-271" y="336" width="160" height="112" as="geometry" />
        </mxCell>
        <mxCell id="ueoVAdYtOfWDZFhrxsrk-43" value="&lt;span style=&quot;text-align: center;&quot; class=&quot;hljs-operator&quot;&gt;-&lt;/span&gt;&lt;span style=&quot;text-align: center;&quot;&gt;saldo:&amp;nbsp;&lt;/span&gt;&lt;span style=&quot;text-align: center;&quot; class=&quot;hljs-type&quot;&gt;float&lt;/span&gt;&lt;div&gt;&lt;span style=&quot;text-align: center;&quot; class=&quot;hljs-type&quot;&gt;&amp;nbsp;&lt;span class=&quot;hljs-operator&quot;&gt;-&lt;/span&gt;titular: Cliente&amp;nbsp;&lt;/span&gt;&lt;/div&gt;" style="text;strokeColor=none;fillColor=none;align=left;verticalAlign=top;spacingLeft=4;spacingRight=4;overflow=hidden;rotatable=0;points=[[0,0.5],[1,0.5]];portConstraint=eastwest;whiteSpace=wrap;html=1;" vertex="1" parent="ueoVAdYtOfWDZFhrxsrk-42">
          <mxGeometry y="26" width="160" height="39" as="geometry" />
        </mxCell>
        <mxCell id="ueoVAdYtOfWDZFhrxsrk-44" value="" style="line;strokeWidth=1;fillColor=none;align=left;verticalAlign=middle;spacingTop=-1;spacingLeft=3;spacingRight=3;rotatable=0;labelPosition=right;points=[];portConstraint=eastwest;strokeColor=inherit;" vertex="1" parent="ueoVAdYtOfWDZFhrxsrk-42">
          <mxGeometry y="65" width="160" height="8" as="geometry" />
        </mxCell>
        <mxCell id="ueoVAdYtOfWDZFhrxsrk-45" value="&lt;span style=&quot;text-align: center;&quot; class=&quot;hljs-operator&quot;&gt;+&lt;/span&gt;&lt;span style=&quot;text-align: center;&quot;&gt;depositar(): void&lt;/span&gt;&lt;div&gt;&lt;span style=&quot;text-align: center;&quot; class=&quot;hljs-operator&quot;&gt;+&lt;/span&gt;&lt;span style=&quot;text-align: center;&quot;&gt;retirar(): boo&lt;/span&gt;&lt;/div&gt;" style="text;strokeColor=none;fillColor=none;align=left;verticalAlign=top;spacingLeft=4;spacingRight=4;overflow=hidden;rotatable=0;points=[[0,0.5],[1,0.5]];portConstraint=eastwest;whiteSpace=wrap;html=1;" vertex="1" parent="ueoVAdYtOfWDZFhrxsrk-42">
          <mxGeometry y="73" width="160" height="39" as="geometry" />
        </mxCell>
        <mxCell id="ueoVAdYtOfWDZFhrxsrk-46" value="dispatch" style="html=1;verticalAlign=bottom;endArrow=block;curved=0;rounded=0;fontSize=12;startSize=8;endSize=8;exitX=0.425;exitY=1;exitDx=0;exitDy=0;exitPerimeter=0;" edge="1" parent="1" target="ueoVAdYtOfWDZFhrxsrk-51">
          <mxGeometry width="80" relative="1" as="geometry">
            <mxPoint x="-199" y="448" as="sourcePoint" />
            <mxPoint x="-199" y="535" as="targetPoint" />
          </mxGeometry>
        </mxCell>
        <mxCell id="ueoVAdYtOfWDZFhrxsrk-51" value="&lt;span style=&quot;font-weight: 400;&quot;&gt;Tarjeta&lt;/span&gt;" style="swimlane;fontStyle=1;align=center;verticalAlign=top;childLayout=stackLayout;horizontal=1;startSize=26;horizontalStack=0;resizeParent=1;resizeParentMax=0;resizeLast=0;collapsible=1;marginBottom=0;whiteSpace=wrap;html=1;" vertex="1" parent="1">
          <mxGeometry x="-278" y="534" width="160" height="97" as="geometry" />
        </mxCell>
        <mxCell id="ueoVAdYtOfWDZFhrxsrk-52" value="&lt;span style=&quot;text-align: center;&quot; class=&quot;hljs-operator&quot;&gt;-&lt;/span&gt;&lt;span style=&quot;text-align: center;&quot;&gt;numero: string&amp;nbsp;&lt;/span&gt;&lt;span style=&quot;text-align: center;&quot; class=&quot;hljs-operator&quot;&gt;|&lt;/span&gt;&lt;br style=&quot;text-align: center;&quot;&gt;&lt;span style=&quot;text-align: center;&quot; class=&quot;hljs-operator&quot;&gt;|&lt;/span&gt;&lt;span style=&quot;text-align: center;&quot;&gt;&amp;nbsp;&lt;/span&gt;&lt;span style=&quot;text-align: center;&quot; class=&quot;hljs-operator&quot;&gt;-&lt;/span&gt;&lt;span style=&quot;text-align: center;&quot;&gt;PIN:&amp;nbsp;&lt;/span&gt;&lt;span style=&quot;text-align: center;&quot; class=&quot;hljs-type&quot;&gt;int&lt;/span&gt;" style="text;strokeColor=none;fillColor=none;align=left;verticalAlign=top;spacingLeft=4;spacingRight=4;overflow=hidden;rotatable=0;points=[[0,0.5],[1,0.5]];portConstraint=eastwest;whiteSpace=wrap;html=1;" vertex="1" parent="ueoVAdYtOfWDZFhrxsrk-51">
          <mxGeometry y="26" width="160" height="37" as="geometry" />
        </mxCell>
        <mxCell id="ueoVAdYtOfWDZFhrxsrk-53" value="" style="line;strokeWidth=1;fillColor=none;align=left;verticalAlign=middle;spacingTop=-1;spacingLeft=3;spacingRight=3;rotatable=0;labelPosition=right;points=[];portConstraint=eastwest;strokeColor=inherit;" vertex="1" parent="ueoVAdYtOfWDZFhrxsrk-51">
          <mxGeometry y="63" width="160" height="8" as="geometry" />
        </mxCell>
        <mxCell id="ueoVAdYtOfWDZFhrxsrk-54" value="&lt;span style=&quot;text-align: center;&quot; class=&quot;hljs-operator&quot;&gt;+&lt;/span&gt;&lt;span style=&quot;text-align: center;&quot;&gt;validarPIN(): bool&lt;/span&gt;" style="text;strokeColor=none;fillColor=none;align=left;verticalAlign=top;spacingLeft=4;spacingRight=4;overflow=hidden;rotatable=0;points=[[0,0.5],[1,0.5]];portConstraint=eastwest;whiteSpace=wrap;html=1;" vertex="1" parent="ueoVAdYtOfWDZFhrxsrk-51">
          <mxGeometry y="71" width="160" height="26" as="geometry" />
        </mxCell>
      </root>
    </mxGraphModel>
  </diagram>
</mxfile>
